<?xml version="1.0" encoding="UTF-8"?>
<svg version="1.1" xmlns="http://www.w3.org/2000/svg" width="64" height="64">
<path d="M0 0 C2.75297126 0.03575287 4.48331356 0.51219561 6.50244141 2.41845703 C8.18667713 4.41500136 9.76165008 6.46053672 11.3125 8.5625 C12.1636438 9.7057373 12.1636438 9.7057373 13.03198242 10.87207031 C20.34213243 20.94027749 27.47457777 31.21820005 26.515625 44.1640625 C25.163018 51.60340102 21.77466362 55.70157981 16.09765625 60.5546875 C9.59642443 65.03412097 2.62859083 64.67463728 -5 64 C-11.65959333 62.31914417 -16.18547447 57.53621678 -20 52 C-23.02332308 45.74907525 -23.5203506 38.69595944 -21.3671875 32.04541016 C-17.27302268 21.89694942 -10.93813618 13.36588189 -4 5 C-2.6644519 3.33510756 -1.33035436 1.66904549 0 0 Z " fill="#B53832" transform="translate(30,0)"/>
<path d="M0 0 C8.90012152 3.45557766 14.82792323 16.42253797 18.74609375 24.66796875 C21.09434438 30.90802416 20.76624554 35.53994852 18.8125 41.8125 C15.33585065 47.92660747 10.65619105 51.78126965 4 54 C-0.10709546 54.71286864 -3.54100603 54.83956144 -7.2265625 52.71875 C-12.70126072 48.2077627 -16.53713085 43.32604632 -17.3046875 36.15234375 C-17.48091603 28.72137405 -17.48091603 28.72137405 -15 25 C-15 27.97 -15 30.94 -15 34 C-12.03 34 -9.06 34 -6 34 C-6 36.64 -6 39.28 -6 42 C-2.7 42 0.6 42 4 42 C4 39.36 4 36.72 4 34 C6.64 34 9.28 34 12 34 C12 30.7 12 27.4 12 24 C9.36 24 6.72 24 4 24 C4 21.36 4 18.72 4 16 C0.37 16 -3.26 16 -7 16 C-7 18.31 -7 20.62 -7 23 C-9.31 23 -11.62 23 -14 23 C-10.90938667 14.5655183 -5.28087451 7.20119251 0 0 Z " fill="#E13E34" transform="translate(33,7)"/>
<path d="M0 0 C2.75297126 0.03575287 4.48331356 0.51219561 6.50244141 2.41845703 C8.18667713 4.41500136 9.76165008 6.46053672 11.3125 8.5625 C12.1636438 9.7057373 12.1636438 9.7057373 13.03198242 10.87207031 C20.34213243 20.94027749 27.47457777 31.21820005 26.515625 44.1640625 C25.163018 51.60340102 21.77466362 55.70157981 16.09765625 60.5546875 C9.59642443 65.03412097 2.62859083 64.67463728 -5 64 C-11.65959333 62.31914417 -16.18547447 57.53621678 -20 52 C-23.02332308 45.74907525 -23.5203506 38.69595944 -21.3671875 32.04541016 C-17.27302268 21.89694942 -10.93813618 13.36588189 -4 5 C-2.6644519 3.33510756 -1.33035436 1.66904549 0 0 Z M1 4 C-0.8063065 6.00092538 -2.4740722 8.00058276 -4.125 10.125 C-4.61274902 10.74866455 -5.10049805 11.3723291 -5.60302734 12.01489258 C-13.2270341 21.98753293 -20.08529778 32.03562468 -19 45 C-16.88025247 51.80550523 -12.86769114 56.08820591 -7 60 C-1.41133024 61.86288992 5.33046712 61.97413506 10.875 59.8125 C16.93875323 56.29552313 20.7875379 51.6373863 23 45 C24.79119367 34.63957298 19.44594545 25.80278996 13.671875 17.61328125 C11.50208873 14.69269145 9.28349754 11.83221229 7 9 C5.93845703 7.59427734 5.93845703 7.59427734 4.85546875 6.16015625 C4.24316406 5.44730469 3.63085938 4.73445312 3 4 C2.34 4 1.68 4 1 4 Z " fill="#070202" transform="translate(30,0)"/>
<path d="M0 0 C0.33 0 0.66 0 1 0 C1 2.97 1 5.94 1 9 C3.97 9 6.94 9 10 9 C10 11.64 10 14.28 10 17 C13.63 17 17.26 17 21 17 C21 14.69 21 12.38 21 10 C23.64 10 26.28 10 29 10 C29.25 17.625 29.25 17.625 27 21 C27.99 20.67 28.98 20.34 30 20 C31.02281518 17.90280128 31.02281518 17.90280128 31.6875 15.4375 C32.06455078 14.19806641 32.06455078 14.19806641 32.44921875 12.93359375 C32.63097656 12.29550781 32.81273437 11.65742187 33 11 C33.66 11 34.32 11 35 11 C34.61783542 16.63692759 34.26597823 19.95854694 30 24 C24.04868666 28.01273064 18.18762935 30.39565619 11 29 C5.24571842 25.68876429 0.75297311 20.44245533 -1 14 C-1.45991095 9.14094081 -1.55088922 4.65266765 0 0 Z " fill="#E73F34" transform="translate(17,32)"/>
<path d="M0 0 C1.98 0 3.96 0 6 0 C6 2.64 6 5.28 6 8 C8.64 8 11.28 8 14 8 C14 9.98 14 11.96 14 14 C11.36 14 8.72 14 6 14 C6 16.64 6 19.28 6 22 C4.02 22 2.04 22 0 22 C0 19.36 0 16.72 0 14 C-2.64 14 -5.28 14 -8 14 C-8 12.02 -8 10.04 -8 8 C-5.36 8 -2.72 8 0 8 C0 5.36 0 2.72 0 0 Z " fill="#D2D3D3" transform="translate(29,25)"/>
<path d="M0 0 C3.3 0 6.6 0 10 0 C10 2.64 10 5.28 10 8 C12.64 8 15.28 8 18 8 C18 11.3 18 14.6 18 18 C15.36 18 12.72 18 10 18 C10 20.64 10 23.28 10 26 C6.7 26 3.4 26 0 26 C0 23.36 0 20.72 0 18 C-2.64 18 -5.28 18 -8 18 C-8 14.7 -8 11.4 -8 8 C-5.36 8 -2.72 8 0 8 C0 5.36 0 2.72 0 0 Z M2 2 C2 4.64 2 7.28 2 10 C-0.64 10 -3.28 10 -6 10 C-6 11.98 -6 13.96 -6 16 C-3.36 16 -0.72 16 2 16 C2 18.64 2 21.28 2 24 C3.98 24 5.96 24 8 24 C8 21.36 8 18.72 8 16 C10.64 16 13.28 16 16 16 C16 14.02 16 12.04 16 10 C13.36 10 10.72 10 8 10 C8 7.36 8 4.72 8 2 C6.02 2 4.04 2 2 2 Z " fill="#000000" transform="translate(27,23)"/>
<path d="M0 0 C0.66 0 1.32 0 2 0 C2.36923077 6.4 2.36923077 6.4 0.5 9.4375 C0.005 9.953125 -0.49 10.46875 -1 11 C-1.99 10.67 -2.98 10.34 -4 10 C-3.525625 9.0925 -3.05125 8.185 -2.5625 7.25 C-1.35371179 4.73572051 -0.52006114 2.70431791 0 0 Z " fill="#2C100F" transform="translate(47,43)"/>
<path d="M0 0 C0.66 0 1.32 0 2 0 C1.609375 5.95703125 1.609375 5.95703125 1 8 C-0.32 8.99 -1.64 9.98 -3 11 C-2.01 7.37 -1.02 3.74 0 0 Z " fill="#E5CFCD" transform="translate(50,43)"/>
</svg>
